name Walk10_EMG.mot
datacolumns 17
datarows 22
range 2.19000000 2.21100000
endheader
                time	            vasmed_r	            vaslat_r	            recfem_r	               gra_r	               sar_r	            tibant_r	           perlong_r	            addmag_r	           semimem_r	          bicfemlh_r	            gasmed_r	            gaslat_r	               sol_r	               tfl_r	              gmed_r	              gmax_r	
          2.19000000	          0.05311787	          0.00000000	          0.00000000	          0.00000000	          0.00000000	          0.01230721	          0.00070139	          0.00000000	          0.00000000	          0.00000000	          0.02282665	          0.00000000	          0.01796367	          0.00000000	          0.00000000	          0.00000000	
          2.19100000	          0.05312545	          0.00000000	          0.00000000	          0.00000000	          0.00000000	          0.01230743	          0.00070213	          0.00000000	          0.00000000	          0.00000000	          0.02283574	          0.00000000	          0.01796589	          0.00000000	          0.00000000	          0.00000000	
          2.19200000	          0.05315527	          0.00000000	          0.00000000	          0.00000000	          0.00000000	          0.01230843	          0.00070576	          0.00000000	          0.00000000	          0.00000000	          0.02287079	          0.00000000	          0.01797677	          0.00000000	          0.00000000	          0.00000000	
          2.19300000	          0.05323279	          0.00000000	          0.00000000	          0.00000000	          0.00000000	          0.01231137	          0.00071761	          0.00000000	          0.00000000	          0.00000000	          0.02296086	          0.00000000	          0.01801316	          0.00000000	          0.00000000	          0.00000000	
          2.19400000	          0.05338852	          0.00000000	          0.00000000	          0.00000000	          0.00000000	          0.01231791	          0.00074681	          0.00000000	          0.00000000	          0.00000000	          0.02314058	          0.00000000	          0.01810514	          0.00000000	          0.00000000	          0.00000000	
          2.19500000	          0.05365369	          0.00000000	          0.00000000	          0.00000000	          0.00000000	          0.01233010	          0.00080527	          0.00000000	          0.00000000	          0.00000000	          0.02344762	          0.00000000	          0.01829271	          0.00000000	          0.00000000	          0.00000000	
          2.19600000	          0.05405785	          0.00000000	          0.00000000	          0.00000000	          0.00000000	          0.01235042	          0.00090613	          0.00000000	          0.00000000	          0.00000000	          0.02392607	          0.00000000	          0.01861970	          0.00000000	          0.00000000	          0.00000000	
          2.19700000	          0.05462777	          0.00000000	          0.00000000	          0.00000000	          0.00000000	          0.01238205	          0.00106274	          0.00000000	          0.00000000	          0.00000000	          0.02463028	          0.00000000	          0.01913319	          0.00000000	          0.00000000	          0.00000000	
          2.19800000	          0.05538781	          0.00000000	          0.00000000	          0.00000000	          0.00000000	          0.01242913	          0.00128765	          0.00000000	          0.00000000	          0.00000000	          0.02562225	          0.00000000	          0.01988717	          0.00000000	          0.00000000	          0.00000000	
          2.19900000	          0.05636038	          0.00000000	          0.00000000	          0.00000000	          0.00000000	          0.01249674	          0.00159185	          0.00000000	          0.00000000	          0.00000000	          0.02696345	          0.00000000	          0.02094138	          0.00000000	          0.00000000	          0.00000000	
          2.20000000	          0.05756552	          0.00000000	          0.00000000	          0.00000000	          0.00000000	          0.01259034	          0.00198521	          0.00000000	          0.00000000	          0.00000000	          0.02870825	          0.00000000	          0.02235443	          0.00000000	          0.00000000	          0.00000000	
          2.20100000	          0.05902013	          0.00049554	          0.00019982	          0.00009489	          0.00073207	          0.01271512	          0.00247740	          0.00042164	          0.00003055	          0.00006882	          0.03090346	          0.00015798	          0.02417787	          0.00010115	          0.00004307	          0.00020052	
          2.20200000	          0.06073795	          0.00139011	          0.00072667	          0.00030196	          0.00234500	          0.01287575	          0.00307787	          0.00128467	          0.00021786	          0.00025701	          0.03359114	          0.00055526	          0.02645355	          0.00045311	          0.00028492	          0.00076912	
          2.20300000	          0.06272981	          0.00243977	          0.00136501	          0.00055129	          0.00426638	          0.01307638	          0.00379531	          0.00230383	          0.00045383	          0.00048528	          0.03680988	          0.00103800	          0.02921263	          0.00088341	          0.00058820	          0.00146224	
          2.20400000	          0.06500341	          0.00365011	          0.00212418	          0.00084847	          0.00651116	          0.01332091	          0.00463830	          0.00348420	          0.00074547	          0.00075769	          0.04059329	          0.00161426	          0.03247611	          0.00139770	          0.00096316	          0.00229022	
          2.20500000	          0.06756297	          0.00502570	          0.00301279	          0.00119939	          0.00908946	          0.01361316	          0.00561720	          0.00482899	          0.00110098	          0.00107811	          0.04496846	          0.00229152	          0.03625654	          0.00200092	          0.00142091	          0.00326148	
          2.20600000	          0.07040879	          0.00656898	          0.00403826	          0.00160983	          0.01200630	          0.01395684	          0.00674633	          0.00634003	          0.00152993	          0.00145015	          0.04995472	          0.00307825	          0.04055977	          0.00269782	          0.00197211	          0.00438258	
          2.20700000	          0.07353689	          0.00827983	          0.00520627	          0.00208532	          0.01526288	          0.01435543	          0.00804517	          0.00801779	          0.00204193	          0.00187747	          0.05556212	          0.00398608	          0.04538602	          0.00349326	          0.00262612	          0.00565890	
          2.20800000	          0.07693885	          0.01015575	          0.00652064	          0.00263124	          0.01885863	          0.01481215	          0.00953778	          0.00986118	          0.00264583	          0.00236406	          0.06179281	          0.00503177	          0.05073010	          0.00439187	          0.00339160	          0.00709527	
          2.20900000	          0.08060204	          0.01219246	          0.00798364	          0.00325316	          0.02279330	          0.01532973	          0.01125009	          0.01186787	          0.00335040	          0.00291437	          0.06864837	          0.00623825	          0.05658162	          0.00539745	          0.00427808	          0.00869627	
          2.21000000	          0.08451030	          0.01438427	          0.00959620	          0.00395667	          0.02706785	          0.01591033	          0.01320764	          0.01403511	          0.00416533	          0.00353413	          0.07613971	          0.00763262	          0.06292497	          0.00651237	          0.00529714	          0.01046655	
          2.21100000	          0.08864462	          0.01672406	          0.01135839	          0.00474674	          0.03168400	          0.01655567	          0.01543588	          0.01635996	          0.00510146	          0.00423161	          0.08429046	          0.00924273	          0.06973987	          0.00773712	          0.00646210	          0.01241036	
